<mxfile host="app.diagrams.net" modified="2023-08-19T16:38:01.888Z" agent="Mozilla/5.0 (Windows NT 10.0; Win64; x64) AppleWebKit/537.36 (KHTML, like Gecko) Chrome/116.0.0.0 Safari/537.36" etag="ibZBINVlllbs-Uht8vhc" version="21.6.8" type="github">
  <diagram name="第 1 页" id="gYALOFsOwTMyq_LpYY_o">
    <mxGraphModel dx="2261" dy="750" grid="1" gridSize="10" guides="1" tooltips="1" connect="1" arrows="1" fold="1" page="1" pageScale="1" pageWidth="827" pageHeight="1169" math="0" shadow="0">
      <root>
        <mxCell id="0" />
        <mxCell id="1" parent="0" />
        <mxCell id="6lgPx7hgYnfJVN_7jftf-24" value="" style="rounded=0;whiteSpace=wrap;html=1;dashed=1;" vertex="1" parent="1">
          <mxGeometry x="-25" y="160" width="715" height="380" as="geometry" />
        </mxCell>
        <mxCell id="6lgPx7hgYnfJVN_7jftf-9" style="rounded=0;orthogonalLoop=1;jettySize=auto;html=1;exitX=0.5;exitY=1;exitDx=0;exitDy=0;entryX=0.5;entryY=0;entryDx=0;entryDy=0;" edge="1" parent="1" source="6lgPx7hgYnfJVN_7jftf-1" target="6lgPx7hgYnfJVN_7jftf-2">
          <mxGeometry relative="1" as="geometry" />
        </mxCell>
        <mxCell id="6lgPx7hgYnfJVN_7jftf-10" style="edgeStyle=orthogonalEdgeStyle;rounded=0;orthogonalLoop=1;jettySize=auto;html=1;exitX=0.5;exitY=1;exitDx=0;exitDy=0;entryX=0.5;entryY=0;entryDx=0;entryDy=0;" edge="1" parent="1" source="6lgPx7hgYnfJVN_7jftf-1" target="6lgPx7hgYnfJVN_7jftf-3">
          <mxGeometry relative="1" as="geometry" />
        </mxCell>
        <mxCell id="6lgPx7hgYnfJVN_7jftf-11" style="rounded=0;orthogonalLoop=1;jettySize=auto;html=1;exitX=0.5;exitY=1;exitDx=0;exitDy=0;entryX=0.588;entryY=0.075;entryDx=0;entryDy=0;entryPerimeter=0;" edge="1" parent="1" source="6lgPx7hgYnfJVN_7jftf-1" target="6lgPx7hgYnfJVN_7jftf-4">
          <mxGeometry relative="1" as="geometry" />
        </mxCell>
        <mxCell id="6lgPx7hgYnfJVN_7jftf-1" value="&lt;font style=&quot;font-size: 18px;&quot;&gt;/a/b/&lt;/font&gt;" style="rounded=0;whiteSpace=wrap;html=1;fillColor=#f8cecc;strokeColor=#b85450;" vertex="1" parent="1">
          <mxGeometry x="400" y="220" width="80" height="40" as="geometry" />
        </mxCell>
        <mxCell id="6lgPx7hgYnfJVN_7jftf-2" value="&lt;font style=&quot;font-size: 18px;&quot;&gt;c&lt;/font&gt;" style="rounded=0;whiteSpace=wrap;html=1;fillColor=#ffe6cc;strokeColor=#d79b00;" vertex="1" parent="1">
          <mxGeometry x="280" y="320" width="80" height="40" as="geometry" />
        </mxCell>
        <mxCell id="6lgPx7hgYnfJVN_7jftf-3" value="&lt;font style=&quot;font-size: 18px;&quot;&gt;{p1}&lt;/font&gt;" style="rounded=0;whiteSpace=wrap;html=1;fillColor=#ffe6cc;strokeColor=#d79b00;" vertex="1" parent="1">
          <mxGeometry x="400" y="320" width="80" height="40" as="geometry" />
        </mxCell>
        <mxCell id="6lgPx7hgYnfJVN_7jftf-12" style="edgeStyle=orthogonalEdgeStyle;rounded=0;orthogonalLoop=1;jettySize=auto;html=1;exitX=0.5;exitY=1;exitDx=0;exitDy=0;entryX=0.5;entryY=0;entryDx=0;entryDy=0;" edge="1" parent="1" source="6lgPx7hgYnfJVN_7jftf-4" target="6lgPx7hgYnfJVN_7jftf-5">
          <mxGeometry relative="1" as="geometry" />
        </mxCell>
        <mxCell id="6lgPx7hgYnfJVN_7jftf-4" value="&lt;font style=&quot;font-size: 18px;&quot;&gt;{p2}&lt;/font&gt;" style="rounded=0;whiteSpace=wrap;html=1;fillColor=#f8cecc;strokeColor=#b85450;" vertex="1" parent="1">
          <mxGeometry x="520" y="320" width="80" height="40" as="geometry" />
        </mxCell>
        <mxCell id="6lgPx7hgYnfJVN_7jftf-14" style="rounded=0;orthogonalLoop=1;jettySize=auto;html=1;exitX=0.5;exitY=1;exitDx=0;exitDy=0;entryX=0.5;entryY=0;entryDx=0;entryDy=0;" edge="1" parent="1" source="6lgPx7hgYnfJVN_7jftf-5" target="6lgPx7hgYnfJVN_7jftf-7">
          <mxGeometry relative="1" as="geometry" />
        </mxCell>
        <mxCell id="6lgPx7hgYnfJVN_7jftf-15" style="rounded=0;orthogonalLoop=1;jettySize=auto;html=1;exitX=0.5;exitY=1;exitDx=0;exitDy=0;entryX=0.5;entryY=0;entryDx=0;entryDy=0;" edge="1" parent="1" source="6lgPx7hgYnfJVN_7jftf-5" target="6lgPx7hgYnfJVN_7jftf-6">
          <mxGeometry relative="1" as="geometry" />
        </mxCell>
        <mxCell id="6lgPx7hgYnfJVN_7jftf-5" value="&lt;font style=&quot;font-size: 18px;&quot;&gt;/&lt;/font&gt;" style="rounded=0;whiteSpace=wrap;html=1;fillColor=#f8cecc;strokeColor=#b85450;" vertex="1" parent="1">
          <mxGeometry x="520" y="400" width="80" height="40" as="geometry" />
        </mxCell>
        <mxCell id="6lgPx7hgYnfJVN_7jftf-6" value="&lt;font style=&quot;font-size: 18px;&quot;&gt;d&lt;/font&gt;" style="rounded=0;whiteSpace=wrap;html=1;fillColor=#ffe6cc;strokeColor=#d79b00;" vertex="1" parent="1">
          <mxGeometry x="460" y="480" width="80" height="40" as="geometry" />
        </mxCell>
        <mxCell id="6lgPx7hgYnfJVN_7jftf-7" value="&lt;font style=&quot;font-size: 18px;&quot;&gt;p3&lt;/font&gt;" style="rounded=0;whiteSpace=wrap;html=1;fillColor=#ffe6cc;strokeColor=#d79b00;" vertex="1" parent="1">
          <mxGeometry x="580" y="480" width="80" height="40" as="geometry" />
        </mxCell>
        <mxCell id="6lgPx7hgYnfJVN_7jftf-16" value="&lt;font style=&quot;font-size: 18px;&quot;&gt;/a/b/c&lt;/font&gt;" style="rounded=0;whiteSpace=wrap;html=1;fillColor=#d5e8d4;strokeColor=#82b366;" vertex="1" parent="1">
          <mxGeometry x="95" y="220" width="120" height="40" as="geometry" />
        </mxCell>
        <mxCell id="6lgPx7hgYnfJVN_7jftf-17" value="&lt;font style=&quot;font-size: 18px;&quot;&gt;/a/b/{p1}&lt;/font&gt;" style="rounded=0;whiteSpace=wrap;html=1;fillColor=#d5e8d4;strokeColor=#82b366;" vertex="1" parent="1">
          <mxGeometry x="95" y="280" width="120" height="40" as="geometry" />
        </mxCell>
        <mxCell id="6lgPx7hgYnfJVN_7jftf-18" value="&lt;font style=&quot;font-size: 18px;&quot;&gt;/a/b/{p2}/d&lt;/font&gt;" style="rounded=0;whiteSpace=wrap;html=1;fillColor=#d5e8d4;strokeColor=#82b366;" vertex="1" parent="1">
          <mxGeometry x="95" y="340" width="120" height="40" as="geometry" />
        </mxCell>
        <mxCell id="6lgPx7hgYnfJVN_7jftf-19" value="&lt;font style=&quot;font-size: 18px;&quot;&gt;/a/b/{p2}/p3&lt;/font&gt;" style="rounded=0;whiteSpace=wrap;html=1;fillColor=#d5e8d4;strokeColor=#82b366;" vertex="1" parent="1">
          <mxGeometry x="95" y="400" width="120" height="40" as="geometry" />
        </mxCell>
        <mxCell id="6lgPx7hgYnfJVN_7jftf-20" value="&lt;font style=&quot;font-size: 14px;&quot;&gt;中间路径&lt;/font&gt;" style="rounded=0;whiteSpace=wrap;html=1;fillColor=#f8cecc;strokeColor=#b85450;" vertex="1" parent="1">
          <mxGeometry x="280" y="420" width="80" height="40" as="geometry" />
        </mxCell>
        <mxCell id="6lgPx7hgYnfJVN_7jftf-21" value="&lt;font style=&quot;font-size: 14px;&quot;&gt;API节点&lt;/font&gt;" style="rounded=0;whiteSpace=wrap;html=1;fillColor=#ffe6cc;strokeColor=#d79b00;" vertex="1" parent="1">
          <mxGeometry x="280" y="480" width="80" height="40" as="geometry" />
        </mxCell>
        <mxCell id="6lgPx7hgYnfJVN_7jftf-22" value="" style="shape=curlyBracket;whiteSpace=wrap;html=1;rounded=1;labelPosition=left;verticalLabelPosition=middle;align=right;verticalAlign=middle;" vertex="1" parent="1">
          <mxGeometry x="55" y="240" width="20" height="200" as="geometry" />
        </mxCell>
        <mxCell id="6lgPx7hgYnfJVN_7jftf-23" value="&lt;font style=&quot;font-size: 14px;&quot;&gt;4个URI&lt;/font&gt;" style="text;html=1;align=center;verticalAlign=middle;resizable=0;points=[];autosize=1;strokeColor=none;fillColor=none;" vertex="1" parent="1">
          <mxGeometry x="-20" y="325" width="70" height="30" as="geometry" />
        </mxCell>
        <mxCell id="6lgPx7hgYnfJVN_7jftf-25" value="&lt;b&gt;&lt;font style=&quot;font-size: 16px;&quot;&gt;基数树算法&lt;/font&gt;&lt;/b&gt;" style="text;html=1;align=center;verticalAlign=middle;resizable=0;points=[];autosize=1;strokeColor=none;fillColor=none;" vertex="1" parent="1">
          <mxGeometry x="-25" y="160" width="100" height="30" as="geometry" />
        </mxCell>
      </root>
    </mxGraphModel>
  </diagram>
</mxfile>
